<svg width="511" height="511" viewBox="0 0 511 511" fill="none" xmlns="http://www.w3.org/2000/svg">
<circle cx="255.5" cy="255.5" r="255.5" fill="#EAEAED"/>
<path d="M64.9091 371V269.182H96.7273C102.428 269.182 107.3 270.226 111.344 272.314C115.42 274.369 118.536 277.335 120.69 281.213C122.878 285.058 123.972 289.665 123.972 295.034C123.972 299.011 123.358 302.674 122.132 306.021C120.939 309.369 119.182 312.186 116.862 314.473C114.542 316.727 111.741 318.268 108.46 319.097V319.494C112.139 319.793 115.454 321.069 118.403 323.322C121.353 325.576 123.673 328.559 125.364 332.271C127.087 335.983 127.949 340.209 127.949 344.949C127.949 350.186 126.839 354.759 124.618 358.67C122.43 362.581 119.249 365.614 115.072 367.768C110.929 369.923 105.941 371 100.108 371H64.9091ZM68.0909 367.818H100.108C107.565 367.818 113.531 365.73 118.006 361.554C122.513 357.345 124.767 351.81 124.767 344.949C124.767 340.242 123.706 336.083 121.585 332.47C119.464 328.857 116.547 326.024 112.835 323.969C109.156 321.914 104.914 320.886 100.108 320.886H68.0909V367.818ZM68.0909 317.705H100.108C104.748 317.705 108.593 316.661 111.642 314.572C114.691 312.484 116.978 309.717 118.503 306.27C120.027 302.823 120.79 299.078 120.79 295.034C120.79 287.809 118.635 282.224 114.327 278.28C110.018 274.336 104.152 272.364 96.7273 272.364H68.0909V317.705ZM152.21 371V294.636H155.392V306.767H155.79C157.58 302.79 160.513 299.608 164.589 297.222C168.699 294.835 173.389 293.642 178.659 293.642C179.057 293.642 179.322 293.642 179.455 293.642C179.587 293.642 179.852 293.642 180.25 293.642V296.824C179.852 296.824 179.587 296.824 179.455 296.824C179.322 296.824 179.057 296.824 178.659 296.824C174.152 296.824 170.141 297.802 166.628 299.757C163.148 301.713 160.397 304.414 158.375 307.861C156.386 311.308 155.392 315.252 155.392 319.693V371H152.21ZM198.135 371V294.636H201.317V371H198.135ZM199.726 280.716C198.864 280.716 198.119 280.401 197.489 279.771C196.859 279.142 196.544 278.396 196.544 277.534C196.544 276.672 196.859 275.927 197.489 275.297C198.119 274.667 198.864 274.352 199.726 274.352C200.588 274.352 201.334 274.667 201.963 275.297C202.593 275.927 202.908 276.672 202.908 277.534C202.908 278.396 202.593 279.142 201.963 279.771C201.334 280.401 200.588 280.716 199.726 280.716ZM253.631 372.591C247.598 372.591 242.378 370.867 237.97 367.42C233.562 363.94 230.165 359.217 227.778 353.251C225.392 347.286 224.199 340.541 224.199 333.017C224.199 325.527 225.409 318.798 227.828 312.832C230.248 306.866 233.661 302.143 238.07 298.663C242.478 295.183 247.665 293.443 253.631 293.443C257.674 293.443 261.403 294.288 264.817 295.979C268.231 297.636 271.197 300.022 273.716 303.138C276.235 306.22 278.157 309.883 279.483 314.125H279.881V269.182H283.062V371H279.881V351.909H279.483C278.091 356.118 276.152 359.781 273.666 362.896C271.18 365.979 268.231 368.365 264.817 370.055C261.436 371.746 257.707 372.591 253.631 372.591ZM253.631 369.409C259.033 369.409 263.69 367.818 267.601 364.636C271.545 361.421 274.578 357.08 276.699 351.611C278.82 346.109 279.881 339.911 279.881 333.017C279.881 326.123 278.804 319.942 276.649 314.473C274.528 308.971 271.495 304.629 267.551 301.447C263.64 298.232 259 296.625 253.631 296.625C248.261 296.625 243.605 298.232 239.661 301.447C235.75 304.629 232.717 308.971 230.562 314.473C228.441 319.942 227.381 326.123 227.381 333.017C227.381 339.911 228.441 346.109 230.562 351.611C232.684 357.08 235.7 361.421 239.611 364.636C243.555 367.818 248.228 369.409 253.631 369.409ZM338.297 401.227C334.021 401.227 330.077 400.647 326.464 399.487C322.852 398.36 319.736 396.653 317.118 394.366C314.5 392.113 312.544 389.295 311.251 385.915L314.234 384.722C315.394 387.705 317.118 390.174 319.405 392.129C321.725 394.118 324.492 395.593 327.707 396.554C330.955 397.548 334.485 398.045 338.297 398.045C346.251 398.045 352.449 395.941 356.891 391.732C361.332 387.555 363.553 381.175 363.553 372.591V351.909H363.155C361.829 356.152 359.857 359.698 357.239 362.548C354.62 365.366 351.588 367.487 348.141 368.912C344.694 370.304 341.081 371 337.303 371C331.337 371 326.15 369.393 321.741 366.178C317.333 362.963 313.92 358.505 311.5 352.804C309.08 347.103 307.871 340.508 307.871 333.017C307.871 325.46 309.064 318.699 311.45 312.733C313.837 306.767 317.234 302.061 321.642 298.614C326.05 295.167 331.27 293.443 337.303 293.443C341.412 293.443 345.158 294.288 348.538 295.979C351.919 297.636 354.852 300.022 357.338 303.138C359.824 306.22 361.763 309.883 363.155 314.125H363.553V294.636H366.734V372.591C366.734 378.855 365.591 384.108 363.304 388.351C361.017 392.626 357.752 395.841 353.51 397.996C349.268 400.15 344.196 401.227 338.297 401.227ZM337.303 367.818C342.606 367.818 347.213 366.41 351.124 363.592C355.068 360.775 358.117 356.765 360.271 351.561C362.459 346.324 363.553 340.143 363.553 333.017C363.553 326.123 362.492 319.942 360.371 314.473C358.25 308.971 355.217 304.629 351.273 301.447C347.362 298.232 342.705 296.625 337.303 296.625C331.9 296.625 327.227 298.232 323.283 301.447C319.372 304.629 316.356 308.971 314.234 314.473C312.113 319.942 311.053 326.123 311.053 333.017C311.053 339.911 312.113 345.976 314.234 351.213C316.389 356.417 319.421 360.493 323.332 363.443C327.277 366.36 331.933 367.818 337.303 367.818ZM422.839 372.591C416.177 372.591 410.344 370.851 405.339 367.371C400.367 363.891 396.506 359.168 393.755 353.202C391.004 347.236 389.629 340.508 389.629 333.017C389.629 325.527 391.004 318.798 393.755 312.832C396.539 306.866 400.317 302.143 405.09 298.663C409.863 295.183 415.249 293.443 421.248 293.443C425.689 293.443 429.799 294.388 433.577 296.277C437.389 298.166 440.703 300.785 443.521 304.132C446.338 307.48 448.525 311.341 450.083 315.716C451.674 320.058 452.469 324.698 452.469 329.636V332.818H391.219V329.636H449.288C449.288 323.505 448.028 317.953 445.509 312.982C442.99 307.977 439.61 304 435.367 301.05C431.125 298.1 426.418 296.625 421.248 296.625C416.011 296.625 411.272 298.183 407.029 301.298C402.787 304.414 399.389 308.656 396.837 314.026C394.285 319.395 392.943 325.46 392.81 332.222V332.619C392.81 339.281 393.97 345.413 396.29 351.014C398.644 356.582 402.058 361.04 406.532 364.388C411.006 367.735 416.442 369.409 422.839 369.409C427.545 369.409 431.489 368.58 434.671 366.923C437.886 365.266 440.455 363.36 442.377 361.206C444.333 359.052 445.774 357.212 446.702 355.688L449.288 357.477C448.161 359.4 446.47 361.537 444.217 363.891C441.963 366.244 439.079 368.282 435.566 370.006C432.053 371.729 427.81 372.591 422.839 372.591Z" fill="#131524"/>
<path d="M66.8494 237V135.182H134.264V152.93H88.3764V177.192H129.79V194.94H88.3764V237H66.8494ZM169.525 135.182V237H148.346V135.182H169.525ZM208.266 238.442C203.394 238.442 199.052 237.597 195.241 235.906C191.429 234.183 188.413 231.647 186.192 228.3C184.005 224.919 182.911 220.71 182.911 215.672C182.911 211.429 183.69 207.866 185.248 204.983C186.806 202.099 188.927 199.779 191.612 198.023C194.296 196.266 197.345 194.94 200.759 194.045C204.206 193.151 207.819 192.521 211.597 192.156C216.039 191.692 219.618 191.261 222.336 190.864C225.054 190.433 227.026 189.803 228.252 188.974C229.478 188.146 230.092 186.92 230.092 185.295V184.997C230.092 181.848 229.097 179.412 227.109 177.689C225.153 175.965 222.369 175.104 218.756 175.104C214.945 175.104 211.912 175.949 209.658 177.639C207.405 179.296 205.913 181.384 205.184 183.903L185.596 182.312C186.59 177.672 188.546 173.662 191.462 170.281C194.379 166.867 198.141 164.249 202.748 162.426C207.388 160.57 212.757 159.642 218.856 159.642C223.098 159.642 227.158 160.139 231.036 161.134C234.947 162.128 238.411 163.669 241.427 165.757C244.476 167.845 246.879 170.53 248.636 173.811C250.392 177.059 251.271 180.954 251.271 185.494V237H231.185V226.411H230.589C229.362 228.797 227.722 230.902 225.667 232.724C223.612 234.514 221.143 235.923 218.259 236.95C215.376 237.945 212.045 238.442 208.266 238.442ZM214.332 223.825C217.447 223.825 220.198 223.212 222.585 221.986C224.971 220.726 226.844 219.036 228.202 216.915C229.561 214.794 230.241 212.391 230.241 209.706V201.602C229.578 202.033 228.666 202.431 227.506 202.795C226.38 203.127 225.103 203.442 223.678 203.74C222.253 204.005 220.828 204.254 219.403 204.486C217.978 204.685 216.685 204.867 215.525 205.033C213.039 205.397 210.868 205.977 209.012 206.773C207.156 207.568 205.714 208.645 204.687 210.004C203.659 211.33 203.146 212.987 203.146 214.976C203.146 217.859 204.19 220.063 206.278 221.588C208.399 223.08 211.084 223.825 214.332 223.825ZM302.105 267.227C295.244 267.227 289.361 266.283 284.456 264.393C279.584 262.537 275.706 260.002 272.822 256.787C269.939 253.572 268.066 249.959 267.205 245.949L286.793 243.314C287.389 244.839 288.334 246.264 289.626 247.589C290.919 248.915 292.626 249.976 294.747 250.771C296.902 251.6 299.52 252.014 302.602 252.014C307.209 252.014 311.004 250.887 313.987 248.634C317.003 246.413 318.511 242.684 318.511 237.447V223.477H317.616C316.688 225.598 315.296 227.604 313.44 229.493C311.584 231.382 309.198 232.923 306.281 234.116C303.365 235.31 299.884 235.906 295.841 235.906C290.107 235.906 284.887 234.58 280.18 231.929C275.507 229.244 271.778 225.151 268.994 219.649C266.243 214.114 264.868 207.121 264.868 198.669C264.868 190.018 266.277 182.793 269.094 176.993C271.911 171.193 275.656 166.851 280.33 163.967C285.036 161.084 290.19 159.642 295.791 159.642C300.067 159.642 303.646 160.371 306.53 161.83C309.413 163.255 311.733 165.045 313.49 167.199C315.28 169.32 316.655 171.408 317.616 173.463H318.412V160.636H339.442V237.746C339.442 244.242 337.851 249.678 334.669 254.053C331.487 258.428 327.079 261.709 321.445 263.896C315.843 266.117 309.397 267.227 302.105 267.227ZM302.553 219.997C305.966 219.997 308.85 219.152 311.203 217.462C313.589 215.738 315.412 213.286 316.672 210.104C317.964 206.889 318.611 203.044 318.611 198.57C318.611 194.095 317.981 190.217 316.722 186.936C315.462 183.622 313.639 181.053 311.253 179.23C308.866 177.407 305.966 176.496 302.553 176.496C299.072 176.496 296.139 177.44 293.753 179.33C291.366 181.186 289.56 183.771 288.334 187.085C287.107 190.4 286.494 194.228 286.494 198.57C286.494 202.978 287.107 206.789 288.334 210.004C289.593 213.186 291.4 215.655 293.753 217.412C296.139 219.135 299.072 219.997 302.553 219.997Z" fill="#131524"/>
</svg>
